<svg width="16" height="16" viewBox="0 0 16 16" fill="none" xmlns="http://www.w3.org/2000/svg">
<rect width="16" height="16" rx="3" fill="white"/>
<path d="M4.18333 11.5933C3.76429 11.5933 3.43371 11.4653 3.1916 11.2092C2.95414 10.9485 2.83541 10.5783 2.83541 10.0988C2.83541 9.83803 2.87033 9.53306 2.94017 9.18386C3.01001 8.83 3.10081 8.45752 3.21255 8.06642C3.32895 7.67066 3.45233 7.27956 3.5827 6.89311C3.71773 6.50666 3.85042 6.14815 3.98079 5.81757C4.11116 5.487 4.22523 5.20996 4.32301 4.98648C4.40681 4.8142 4.52554 4.72807 4.67919 4.72807C4.77697 4.72807 4.85612 4.75833 4.91665 4.81886C4.98183 4.87939 5.01442 4.97716 5.01442 5.11219C5.01442 5.17737 4.98183 5.31938 4.91665 5.53821C4.85146 5.75704 4.76533 6.02709 4.65824 6.34836C4.55581 6.66496 4.44406 7.00718 4.32301 7.375C4.20661 7.74283 4.09486 8.11298 3.98777 8.48546C3.88534 8.85794 3.80153 9.20947 3.73635 9.54004C3.67117 9.86596 3.63857 10.143 3.63857 10.3711C3.63857 10.4643 3.66418 10.5388 3.7154 10.5946C3.77127 10.6505 3.84344 10.6784 3.9319 10.6784C4.1228 10.6784 4.31835 10.6435 4.51856 10.5737C4.72342 10.5038 4.92363 10.4154 5.11918 10.3083C5.31939 10.2012 5.50796 10.0871 5.68489 9.96607C5.86181 9.84501 6.02012 9.73094 6.1598 9.62385C6.30413 9.51211 6.42053 9.42364 6.509 9.35846C6.6254 9.27 6.70455 9.22576 6.74645 9.22576C6.90476 9.22576 6.98391 9.30259 6.98391 9.45624C6.98391 9.49348 6.93735 9.57031 6.84423 9.68671C6.76508 9.78914 6.65333 9.91951 6.509 10.0778C6.36466 10.2361 6.19705 10.4037 6.00615 10.5807C5.81991 10.7529 5.6197 10.9159 5.40553 11.0695C5.19601 11.2232 4.98649 11.3489 4.77697 11.4467C4.56745 11.5445 4.36957 11.5933 4.18333 11.5933Z" fill="#363636"/>
<path d="M9.57737 11.5445C9.34457 11.5445 9.17929 11.4886 9.08151 11.3768C8.98839 11.2697 8.94183 11.158 8.94183 11.0416C8.94183 10.9392 8.96511 10.8437 9.01167 10.7553C9.06289 10.6621 9.15135 10.5876 9.27706 10.5318C9.40277 10.4759 9.58203 10.4526 9.81483 10.4619C10.0476 10.3409 10.2828 10.1919 10.5202 10.015C10.7623 9.83803 10.9928 9.64248 11.2116 9.4283C11.4351 9.21412 11.633 8.99529 11.8053 8.7718C11.9822 8.54366 12.1196 8.32017 12.2173 8.10134C12.3198 7.87785 12.371 7.66833 12.371 7.47278C12.371 7.26326 12.3058 7.10496 12.1754 6.99787C12.0497 6.89078 11.8728 6.83724 11.6446 6.83724C11.4491 6.83724 11.2698 6.86052 11.1069 6.90708C10.9439 6.94898 10.7996 7.0002 10.6739 7.06072C10.5482 7.12125 10.4411 7.1748 10.3526 7.22136C10.2688 7.26326 10.2013 7.28421 10.1501 7.28421C10.0616 7.28421 9.98245 7.24696 9.91261 7.17247C9.84277 7.09332 9.82181 6.99088 9.84975 6.86517C9.86837 6.78136 9.92425 6.68126 10.0174 6.56486C10.1105 6.44846 10.2385 6.33206 10.4015 6.21566C10.5644 6.09926 10.7577 6.00381 10.9812 5.92932C11.2093 5.85016 11.4654 5.81059 11.7494 5.81059C12.2057 5.81059 12.5758 5.95027 12.8599 6.22963C13.1485 6.50899 13.2929 6.93501 13.2929 7.5077C13.2929 7.88484 13.1928 8.25499 12.9926 8.61816C12.797 8.98132 12.5363 9.32587 12.2103 9.65179C11.8844 9.97771 11.5282 10.2757 11.1418 10.5457C11.491 10.5318 11.7634 10.5108 11.9589 10.4829C12.1545 10.4503 12.3104 10.4224 12.4268 10.3991C12.5479 10.3758 12.6643 10.3642 12.776 10.3642C12.9344 10.3642 13.0577 10.3967 13.1462 10.4619C13.2347 10.5271 13.2789 10.6202 13.2789 10.7413C13.2789 10.8298 13.2556 10.9159 13.2091 10.9997C13.1672 11.0835 13.0833 11.1603 12.9576 11.2302C12.8319 11.2954 12.6503 11.3466 12.4129 11.3838C12.1754 11.4257 11.8635 11.4467 11.477 11.4467C11.2489 11.4467 11.0138 11.4443 10.7716 11.4397C10.5342 11.435 10.3037 11.4281 10.0802 11.4187C9.94985 11.4653 9.84742 11.4979 9.77293 11.5165C9.70309 11.5351 9.6379 11.5445 9.57737 11.5445Z" fill="#8B8B8B"/>
</svg>
